<?xml version="1.0" encoding="UTF-8" standalone="no"?>
<svg width="854px" height="860px" viewBox="0 0 854 860" version="1.1" xmlns="http://www.w3.org/2000/svg" xmlns:xlink="http://www.w3.org/1999/xlink">
    <!-- Generator: Sketch 3.8.1 (29687) - http://www.bohemiancoding.com/sketch -->
    <title>JS Melbourne V4</title>
    <desc>Created with Sketch.</desc>
    <defs></defs>
    <g id="Page-1" stroke="none" stroke-width="1" fill="none" fill-rule="evenodd">
        <g id="JS-Melbourne-V4" transform="translate(-72.000000, -62.000000)">
            <rect id="Rectangle-path" x="0" y="0" width="1000" height="1000"></rect>
            <polygon id="Shape" fill="#FFFFFF" points="82 142.95 227.53 67.43 506.34 227.71 788.55 67.5 926 147.64 926 641.29 794.01 718.58 655.85 638.57 655.24 479.18 511.28 557.02 371.28 473.94 372.94 637.03 227.4 718.58 82 637.03"></polygon>
            <path d="M783.58,62.86 L501.35,223.08 L222.65,62.86 L72,141.05 L72,641.05 L222.39,725.4 L373,641.08 L371.37,483.86 L506.17,563.86 L645.27,488.65 L645.86,642.55 L789,725.5 L926,645.29 L926,145.86 L783.58,62.86 Z M510,393.59 L916,157.94 L916,633.17 L510,393.59 Z M298.77,268.94 L245.27,117.44 L351,299.76 L298.77,268.94 Z M361.24,317.41 L376,342.93 L337.9,379.74 L304,283.6 L361.24,317.41 Z M285.37,261.03 L192.71,206.35 L223.48,85.76 L285.37,261.03 Z M290.55,275.7 L330,387.37 L311.83,404.91 L180.43,254.48 L190.14,216.48 L290.55,275.7 Z M333.65,397.7 L352.73,451.7 L318.41,412.4 L333.65,397.7 Z M177.43,266.25 L304.62,411.86 L263.82,451.24 L170.65,292.86 L177.43,266.25 Z M163.43,280.59 L108.79,187.69 L169.42,257.11 L163.43,280.59 Z M172.43,245.34 L101.53,164.15 L181.17,211.15 L172.43,245.34 Z M159.93,294.34 L140.2,371.69 L90.82,176.86 L159.93,294.34 Z M167.13,306.58 L256.41,458.39 L180.7,531.48 L145.34,391.98 L167.13,306.58 Z M172.4,539.47 L86.57,622.34 L140.17,412.26 L172.4,539.47 Z M175.23,550.64 L180.91,573.04 L108.46,615.04 L175.23,550.64 Z M183.52,542.64 L261.62,467.25 L287.46,511.19 L189.91,567.86 L183.52,542.64 Z M269,460.11 L311.17,419.4 L356.39,471.17 L296.09,506.17 L269,460.11 Z M341.53,390.11 L381.21,351.86 L426.75,430.38 L367.86,464.56 L341.53,390.11 Z M388.58,344.69 L395.73,337.79 L490.18,393.53 L435.36,425.35 L388.58,344.69 Z M383.41,335.78 L378.78,327.78 L386.78,332.51 L383.41,335.78 Z M368.54,310.14 L236.46,82.3 L493.21,229.86 L394.29,325.34 L368.54,310.14 Z M183.74,201.05 L87.51,144.26 L215.13,78.06 L183.74,201.05 Z M135,391.97 L82,599.78 L82,182.72 L135,391.97 Z M183.44,583.12 L215.65,710.21 L87.94,638.57 L183.44,583.12 Z M192.44,577.9 L292.54,519.86 L361,636.25 L226.38,711.74 L192.44,577.9 Z M301.17,514.79 L361.25,479.92 L362.63,619.28 L301.17,514.79 Z M431.74,439 L492.88,544.42 L372.88,473.19 L431.74,439 Z M440.39,434 L500.07,399.36 L638.4,480.99 L508.4,551.29 L440.39,434 Z M911.46,149 L500.13,387.76 L403.23,330.58 L504.23,233.04 L783.56,74.4 L911.46,149 Z M789,713.92 L655.71,636.86 L655.2,490.86 L911.56,642.16 L789,713.92 Z" id="Shape" fill="#679CBA"></path>
            <path d="M918.16,761.5 C910.84,715.87 881.09,677.56 792.97,641.82 C762.36,627.75 728.24,617.68 718.07,594.48 C714.46,580.98 713.98,573.38 716.26,565.2 C722.82,538.68 754.47,530.41 779.57,538.01 C795.73,543.43 811.03,555.88 820.25,575.75 C863.41,547.8 863.31,547.99 893.44,528.75 C882.44,511.64 876.52,503.75 869.3,496.43 C843.3,467.43 807.99,452.51 751.43,453.65 C741.64,454.89 731.75,456.22 721.96,457.45 C693.73,464.58 666.83,479.45 651.05,499.28 C603.71,553 617.21,647.05 674.81,685.74 C731.56,728.33 814.92,738.02 825.57,777.85 C835.93,826.61 789.73,842.39 743.82,836.79 C709.98,829.79 691.16,812.55 670.82,781.28 C633.37,802.95 633.37,802.95 594.82,825.1 C603.95,845.1 613.55,854.1 628.82,871.39 C701.33,944.87 882.6,941.25 915.11,830 C916.44,826.24 925.19,800.76 918.16,761.5 L918.16,761.5 Z" id="S" fill="#000000"></path>
            <path d="M543.63,459.6 L450.1,459.6 C450.1,540.4 449.72,620.6 449.72,701.43 C449.72,752.86 452.38,800 444.02,814.43 C430.33,842.85 394.88,839.33 378.72,833.82 C362.28,825.74 353.91,814.24 344.21,797.98 C341.55,793.32 339.55,789.71 338.89,789.42 C313.51,804.913333 288.176667,820.44 262.89,836 C275.53,862 294.16,884.48 318.02,899.12 C353.67,920.51 401.58,927.07 451.67,915.56 C484.27,906.05 512.41,886.38 527.15,856.43 C548.44,817.17 543.88,769.64 543.69,717.08 C544.11,631.37 543.63,545.63 543.63,459.6 L543.63,459.6 Z" id="J" fill="#000000"></path>
        </g>
    </g>
</svg>