<?xml version="1.0" encoding="UTF-8" standalone="no"?>
<svg width="1000px" height="1000px" viewBox="0 0 1000 1000" version="1.1" xmlns="http://www.w3.org/2000/svg" xmlns:xlink="http://www.w3.org/1999/xlink">
    <!-- Generator: Sketch 3.7.2 (28276) - http://www.bohemiancoding.com/sketch -->
    <title>JS Melbourne V2</title>
    <desc>Created with Sketch.</desc>
    <defs></defs>
    <g id="Page-1" stroke="none" stroke-width="1" fill="none" fill-rule="evenodd">
        <g id="JS-Melbourne-V2">
            <rect id="Rectangle-path" fill="#747E85" x="0" y="0" width="1000" height="1000"></rect>
            <polygon id="Shape" fill="#679CBA" points="77 143.95 222.53 68.43 501.34 228.71 783.55 68.5 921 148.64 921 642.29 789.01 719.58 650.85 639.57 650.24 480.18 506.28 558.02 366.28 474.94 367.94 638.03 222.4 719.58 77 638.03"></polygon>
            <path d="M784.58,68.56 L502.35,228.78 L223.65,68.56 L73,146.75 L73,646.75 L223.39,731.1 L374,646.78 L372.37,489.56 L507.17,569.56 L646.27,494.35 L646.86,648.25 L790,731.2 L927,650.99 L927,151.56 L784.58,68.56 Z M511,399.29 L917,163.64 L917,638.87 L511,399.29 Z M299.77,274.64 L246.27,123.14 L352,305.46 L299.77,274.64 Z M362.24,323.11 L377,348.63 L338.9,385.44 L305,289.3 L362.24,323.11 Z M286.37,266.73 L193.71,212.05 L224.48,91.46 L286.37,266.73 Z M291.55,281.4 L331,393.07 L312.83,410.61 L181.43,260.18 L191.14,222.18 L291.55,281.4 Z M334.65,403.4 L353.73,457.4 L319.41,418.1 L334.65,403.4 Z M178.43,271.95 L305.62,417.56 L264.82,456.94 L171.65,298.56 L178.43,271.95 Z M164.43,286.29 L109.79,193.39 L170.42,262.81 L164.43,286.29 Z M173.43,251.04 L102.53,169.85 L182.17,216.85 L173.43,251.04 Z M160.93,300.04 L141.2,377.39 L91.82,182.56 L160.93,300.04 Z M168.13,312.28 L257.41,464.09 L181.7,537.18 L146.34,397.68 L168.13,312.28 Z M173.4,545.17 L87.57,628.04 L141.17,417.96 L173.4,545.17 Z M176.23,556.34 L181.91,578.74 L109.46,620.74 L176.23,556.34 Z M184.52,548.34 L262.62,472.95 L288.46,516.89 L190.91,573.56 L184.52,548.34 Z M270,465.81 L312.17,425.1 L357.39,476.87 L297.09,511.87 L270,465.81 Z M342.53,395.81 L382.21,357.56 L427.75,436.08 L368.86,470.26 L342.53,395.81 Z M389.58,350.39 L396.73,343.49 L491.18,399.23 L436.36,431.05 L389.58,350.39 Z M384.41,341.48 L379.78,333.48 L387.78,338.21 L384.41,341.48 Z M369.54,315.84 L237.46,88 L494.21,235.56 L395.29,331.04 L369.54,315.84 Z M184.74,206.75 L88.51,149.96 L216.13,83.76 L184.74,206.75 Z M136,397.67 L83,605.48 L83,188.42 L136,397.67 Z M184.44,588.82 L216.65,715.91 L88.94,644.27 L184.44,588.82 Z M193.44,583.6 L293.54,525.56 L362,641.95 L227.38,717.44 L193.44,583.6 Z M302.17,520.49 L362.25,485.62 L363.63,624.98 L302.17,520.49 Z M432.74,444.7 L493.88,550.12 L373.88,478.89 L432.74,444.7 Z M441.39,439.7 L501.07,405.06 L639.4,486.69 L509.4,556.99 L441.39,439.7 Z M912.46,154.7 L501.13,393.46 L404.23,336.28 L505.23,238.74 L784.56,80.1 L912.46,154.7 Z M790,719.62 L656.71,642.56 L656.2,496.56 L912.56,647.86 L790,719.62 Z" id="Shape" fill="#BDCCD3"></path>
            <path d="M918.16,761.5 C910.84,715.87 881.09,677.56 792.97,641.82 C762.36,627.75 728.24,617.68 718.07,594.48 C714.46,580.98 713.98,573.38 716.26,565.2 C722.82,538.68 754.47,530.41 779.57,538.01 C795.73,543.43 811.03,555.88 820.25,575.75 C863.41,547.8 863.31,547.99 893.44,528.75 C882.44,511.64 876.52,503.75 869.3,496.43 C843.3,467.43 807.99,452.51 751.43,453.65 C741.64,454.89 731.75,456.22 721.96,457.45 C693.73,464.58 666.83,479.45 651.05,499.28 C603.71,553 617.21,647.05 674.81,685.74 C731.56,728.33 814.92,738.02 825.57,777.85 C835.93,826.61 789.73,842.39 743.82,836.79 C709.98,829.79 691.16,812.55 670.82,781.28 C633.37,802.95 633.37,802.95 594.82,825.1 C603.95,845.1 613.55,854.1 628.82,871.39 C701.33,944.87 882.6,941.25 915.11,830 C916.44,826.24 925.19,800.76 918.16,761.5 L918.16,761.5 Z" id="S" fill="#FFFFFF"></path>
            <path d="M543.63,459.6 L450.1,459.6 C450.1,540.4 449.72,620.6 449.72,701.43 C449.72,752.86 452.38,800 444.02,814.43 C430.33,842.85 394.88,839.33 378.72,833.82 C362.28,825.74 353.91,814.24 344.21,797.98 C341.55,793.32 339.55,789.71 338.89,789.42 C313.51,804.913333 288.176667,820.44 262.89,836 C275.53,862 294.16,884.48 318.02,899.12 C353.67,920.51 401.58,927.07 451.67,915.56 C484.27,906.05 512.41,886.38 527.15,856.43 C548.44,817.17 543.88,769.64 543.69,717.08 C544.11,631.37 543.63,545.63 543.63,459.6 L543.63,459.6 Z" id="J" fill="#FFFFFF"></path>
        </g>
    </g>
</svg>