<?xml version="1.0" encoding="UTF-8" standalone="no"?>
<svg width="1000px" height="1000px" viewBox="0 0 1000 1000" version="1.1" xmlns="http://www.w3.org/2000/svg" xmlns:xlink="http://www.w3.org/1999/xlink">
    <!-- Generator: Sketch 3.7.2 (28276) - http://www.bohemiancoding.com/sketch -->
    <title>MJS v1</title>
    <desc>Created with Sketch.</desc>
    <defs></defs>
    <g id="Page-1" stroke="none" stroke-width="1" fill="none" fill-rule="evenodd">
        <g id="MJS-v1">
            <rect id="Rectangle-path" fill="#747E85" x="0" y="0" width="1000" height="1000"></rect>
            <path d="M784.53,64.56 L502.3,224.78 L223.6,64.56 L72.95,142.75 L72.95,642.75 L223.34,727.1 L373.95,642.78 L372.32,485.56 L507.12,565.56 L646.22,490.35 L646.81,644.25 L789.95,727.2 L926.95,646.99 L926.95,147.56 L784.53,64.56 Z M510.95,395.29 L916.95,159.64 L916.95,634.87 L510.95,395.29 Z M299.72,270.64 L246.22,119.14 L351.95,301.46 L299.72,270.64 Z M362.19,319.11 L376.95,344.63 L338.85,381.44 L304.95,285.3 L362.19,319.11 Z M286.32,262.73 L193.66,208.05 L224.43,87.46 L286.32,262.73 Z M291.5,277.4 L330.95,389.07 L312.78,406.61 L181.38,256.18 L191.09,218.18 L291.5,277.4 Z M334.6,399.4 L353.68,453.4 L319.36,414.1 L334.6,399.4 Z M178.38,267.95 L305.57,413.56 L264.77,452.94 L171.6,294.56 L178.38,267.95 Z M164.38,282.29 L109.74,189.39 L170.37,258.81 L164.38,282.29 Z M173.38,247.04 L102.48,165.85 L182.12,212.85 L173.38,247.04 Z M160.88,296.04 L141.15,373.39 L91.77,178.56 L160.88,296.04 Z M168.08,308.28 L257.36,460.09 L181.65,533.18 L146.29,393.68 L168.08,308.28 Z M173.35,541.17 L87.52,624.04 L141.12,413.96 L173.35,541.17 Z M176.18,552.34 L181.86,574.74 L109.41,616.74 L176.18,552.34 Z M184.47,544.34 L262.57,468.95 L288.41,512.89 L190.86,569.56 L184.47,544.34 Z M269.95,461.81 L312.12,421.1 L357.34,472.87 L297.04,507.87 L269.95,461.81 Z M342.48,391.81 L382.16,353.56 L427.7,432.08 L368.81,466.26 L342.48,391.81 Z M389.53,346.39 L396.68,339.49 L491.13,395.23 L436.31,427.05 L389.53,346.39 Z M384.36,337.48 L379.73,329.48 L387.73,334.21 L384.36,337.48 Z M369.49,311.84 L237.41,84 L494.16,231.56 L395.24,327.04 L369.49,311.84 Z M184.69,202.75 L88.46,145.96 L216.08,79.76 L184.69,202.75 Z M135.95,393.67 L82.95,601.48 L82.95,184.42 L135.95,393.67 Z M184.39,584.82 L216.6,711.91 L88.89,640.27 L184.39,584.82 Z M193.39,579.6 L293.49,521.56 L361.95,637.95 L227.33,713.44 L193.39,579.6 Z M302.12,516.49 L362.2,481.62 L363.58,620.98 L302.12,516.49 Z M432.69,440.7 L493.83,546.12 L373.83,474.89 L432.69,440.7 Z M441.34,435.7 L501.02,401.06 L639.35,482.69 L509.35,552.99 L441.34,435.7 Z M912.41,150.7 L501.08,389.46 L404.18,332.28 L505.18,234.74 L784.51,76.1 L912.41,150.7 Z M789.95,715.62 L656.66,638.56 L656.15,492.56 L912.51,643.86 L789.95,715.62 Z" id="Shape" fill="#679CBA"></path>
            <path d="M918.16,761.5 C910.84,715.87 881.09,677.56 792.97,641.82 C762.36,627.75 728.24,617.68 718.07,594.48 C714.46,580.98 713.98,573.38 716.26,565.2 C722.82,538.68 754.47,530.41 779.57,538.01 C795.73,543.43 811.03,555.88 820.25,575.75 C863.41,547.8 863.31,547.99 893.44,528.75 C882.44,511.64 876.52,503.75 869.3,496.43 C843.3,467.43 807.99,452.51 751.43,453.65 C741.64,454.89 731.75,456.22 721.96,457.45 C693.73,464.58 666.83,479.45 651.05,499.28 C603.71,553 617.21,647.05 674.81,685.74 C731.56,728.33 814.92,738.02 825.57,777.85 C835.93,826.61 789.73,842.39 743.82,836.79 C709.98,829.79 691.16,812.55 670.82,781.28 C633.37,802.95 633.37,802.95 594.82,825.1 C603.95,845.1 613.55,854.1 628.82,871.39 C701.33,944.87 882.6,941.25 915.11,830 C916.44,826.24 925.19,800.76 918.16,761.5 L918.16,761.5 Z" id="S" fill="#FFFFFF"></path>
            <path d="M543.63,459.6 L450.1,459.6 C450.1,540.4 449.72,620.6 449.72,701.43 C449.72,752.86 452.38,800 444.02,814.43 C430.33,842.85 394.88,839.33 378.72,833.82 C362.28,825.74 353.91,814.24 344.21,797.98 C341.55,793.32 339.55,789.71 338.89,789.42 C313.51,804.913333 288.176667,820.44 262.89,836 C275.53,862 294.16,884.48 318.02,899.12 C353.67,920.51 401.58,927.07 451.67,915.56 C484.27,906.05 512.41,886.38 527.15,856.43 C548.44,817.17 543.88,769.64 543.69,717.08 C544.11,631.37 543.63,545.63 543.63,459.6 L543.63,459.6 Z" id="J" fill="#FFFFFF"></path>
        </g>
    </g>
</svg>